# xmcd CD database file
#
# Track frame offsets:
#	150
#	17105
#	32101
#	51604
#	72002
#	92111
#	119864
#	131409
#	152792
#	175068
#	188720
#	200472
#	221797
#
# Disc length: 3277 seconds
#
# Revision: 0
# Processed by: cddbd v1.4PL0 Copyright (c) Steve Scherf et al.
# Submitted via: CDex 1.50beta8
#
DISCID=c20ccb0d
DTITLE=Diana Krall - When I Look In Your Eyes
DYEAR=1999
DGENRE=Jazz
TTITLE0=Why Should I Care
TTITLE1=Devil May Care
TTITLE2=Let's Fall in Love
TTITLE3=When I Look in Your Eyes
TTITLE4=Popsicle Toes
TTITLE5=I've Got You Under My Skin
TTITLE6=I Can't Give You Anything But Love
TTITLE7=I'll String Along With You
TTITLE8=East of the Sun (And West of the Moon)
TTITLE9=Pick Yourself Up
TTITLE10=Best Thing for You
TTITLE11=Do It Again
TTITLE12=Let's Face the Music and Dance
EXTD=YEAR: 1999
EXTT0=
EXTT1=
EXTT2=
EXTT3=
EXTT4=
EXTT5=
EXTT6=
EXTT7=
EXTT8=
EXTT9=
EXTT10=
EXTT11=
EXTT12=
PLAYORDER=
